<svg xmlns="http://www.w3.org/2000/svg" viewBox="0 0 800 200">
  <defs>
    <filter id="glow" x="-50%" y="-50%" width="200%" height="200%">
      <feGaussianBlur stdDeviation="4" result="blur" />
      <feFlood flood-color="#5865F2" flood-opacity="0.8" result="color" />
      <feComposite in="color" in2="blur" operator="in" result="glow" />
      <feMerge>
        <feMergeNode in="glow" />
        <feMergeNode in="SourceGraphic" />
      </feMerge>
    </filter>
    
    <!-- Lightning bolt patterns -->
    <pattern id="lightning1" patternUnits="userSpaceOnUse" width="60" height="200">
      <path d="M30 10 L40 50 L20 60 L30 100 L10 110 L30 190" stroke="#5865F2" stroke-width="3" fill="none" stroke-linecap="round">
        <animate attributeName="opacity" values="0;1;0.5;1;0;0.7;0" dur="2.3s" repeatCount="indefinite" />
      </path>
    </pattern>
    
    <pattern id="lightning2" patternUnits="userSpaceOnUse" width="60" height="200">
      <path d="M30 5 L20 60 L40 80 L25 130 L45 150 L25 195" stroke="#5865F2" stroke-width="3" fill="none" stroke-linecap="round">
        <animate attributeName="opacity" values="0;0.5;1;0;0.7;1;0" dur="1.7s" repeatCount="indefinite" />
      </path>
    </pattern>
    
    <pattern id="lightning3" patternUnits="userSpaceOnUse" width="80" height="200">
      <path d="M40 5 L60 40 L30 70 L50 100 L30 130 L40 190" stroke="#5865F2" stroke-width="3" fill="none" stroke-linecap="round">
        <animate attributeName="opacity" values="0.2;0;1;0.5;0;0.7;0.2" dur="2s" repeatCount="indefinite" />
      </path>
    </pattern>
    
    <linearGradient id="textGradient" x1="0%" y1="0%" x2="100%" y2="0%">
      <stop offset="0%" stop-color="#ffffff" />
      <stop offset="50%" stop-color="#e0e0ff" />
      <stop offset="100%" stop-color="#ffffff" />
      <animate attributeName="x1" values="0%;100%;0%" dur="3s" repeatCount="indefinite" />
      <animate attributeName="x2" values="100%;0%;100%" dur="3s" repeatCount="indefinite" />
    </linearGradient>
  </defs>
  
  <!-- Background rect with rounded corners -->
  <rect x="10" y="10" width="780" height="180" rx="20" ry="20" fill="black" />
  
  <!-- Lightning decoration elements -->
  <rect x="15" y="15" width="30" height="170" fill="url(#lightning1)" />
  <rect x="755" y="15" width="30" height="170" fill="url(#lightning2)" />
  <rect x="55" y="15" width="20" height="170" fill="url(#lightning3)" />
  <rect x="725" y="15" width="20" height="170" fill="url(#lightning3)" />
  
  <!-- Central text with glow effect -->
  <text x="400" y="110" font-family="Arial, sans-serif" font-size="42" font-weight="bold" text-anchor="middle" fill="url(#textGradient)" filter="url(#glow)">
    Welcome to LapZone! 👋
    <animate attributeName="filter" values="url(#glow);url(#glow)" dur="0.2s" repeatCount="indefinite" />
    <animate attributeName="opacity" values="0.9;1;0.9" dur="1.5s" repeatCount="indefinite" />
  </text>
  
  <!-- Flickering lightning bolts around text -->
  <path d="M180 50 L200 70 L190 90 L210 110" stroke="#5865F2" stroke-width="3" fill="none">
    <animate attributeName="opacity" values="0;1;0;0.7;0" dur="0.7s" repeatCount="indefinite" />
  </path>
  
  <path d="M600 60 L620 90 L600 110 L625 130" stroke="#5865F2" stroke-width="3" fill="none">
    <animate attributeName="opacity" values="0.7;0;1;0;0.5" dur="0.8s" repeatCount="indefinite" />
  </path>
  
  <path d="M250 145 L270 125 L250 115 L275 95" stroke="#5865F2" stroke-width="3" fill="none">
    <animate attributeName="opacity" values="0;0.5;1;0;0.7" dur="0.9s" repeatCount="indefinite" />
  </path>
  
  <path d="M530 145 L550 125 L530 105 L555 80" stroke="#5865F2" stroke-width="3" fill="none">
    <animate attributeName="opacity" values="0.3;0;0.8;0.1;0" dur="1.1s" repeatCount="indefinite" />
  </path>
  
  <!-- Small decorative lightning bolts -->
  <g>
    <path d="M310 60 L320 75 L310 85 L320 100" stroke="#5865F2" stroke-width="2">
      <animate attributeName="opacity" values="0;1;0" dur="0.5s" repeatCount="indefinite" />
    </path>
    
    <path d="M480 60 L470 75 L480 85 L470 100" stroke="#5865F2" stroke-width="2">
      <animate attributeName="opacity" values="0;0.7;0" dur="0.6s" repeatCount="indefinite" />
    </path>
    
    <path d="M390 40 L395 50 L385 60 L395 70 L385 80" stroke="#5865F2" stroke-width="2">
      <animate attributeName="opacity" values="0;0.5;1;0" dur="0.7s" repeatCount="indefinite" />
    </path>
  </g>
</svg>